<?xml version="1.0" encoding="UTF-8" standalone="no"?>
<svg
   xmlns:dc="http://purl.org/dc/elements/1.1/"
   xmlns:cc="http://creativecommons.org/ns#"
   xmlns:rdf="http://www.w3.org/1999/02/22-rdf-syntax-ns#"
   xmlns:svg="http://www.w3.org/2000/svg"
   xmlns="http://www.w3.org/2000/svg"
   id="svg8"
   version="1.1"
   viewBox="0 0 128 128"
   height="128mm"
   width="128mm">
  <defs
     id="defs2" />
  <metadata
     id="metadata5">
    <rdf:RDF>
      <cc:Work
         rdf:about="">
        <dc:format>image/svg+xml</dc:format>
        <dc:type
           rdf:resource="http://purl.org/dc/dcmitype/StillImage" />
        <dc:title></dc:title>
      </cc:Work>
    </rdf:RDF>
  </metadata>
  <g
     transform="translate(-28.400349,-113.2905)"
     id="layer1">
    <g
       transform="matrix(2.1802748,0,0,2.1802748,-207.99026,97.253451)"
       id="g271">
      <g
         transform="translate(4.9719401,0.70348252)"
         id="g4016">
        <path
           style="fill:#70c1fe;stroke-width:0.16442345"
           d="m 126.74199,50.177748 c -1.84672,-0.850656 -2.27238,-1.805646 -2.35349,-5.280226 -0.0688,-2.949182 -0.0952,-3.037868 -0.95,-3.198232 -0.75054,-0.1408 -1.21815,-0.620125 -1.21815,-1.248677 0,-0.615484 0.64269,-1.307914 1.21396,-1.307914 0.82296,0 0.92355,-0.311399 0.92355,-2.859309 0,-2.664598 0.20761,-3.630326 0.98162,-4.566089 1.05669,-1.277519 3.14793,-1.764612 3.88702,-0.905367 0.75792,0.881137 0.13691,2.082679 -1.07643,2.082679 -0.9275,0 -1.07279,0.423103 -1.16639,3.396775 -0.0762,2.419868 -0.13208,2.854226 -0.44334,3.44405 l -0.35617,0.674942 0.36113,0.722658 c 0.31588,0.632125 0.37142,1.069516 0.44333,3.491751 0.091,3.064422 0.21969,3.396776 1.31539,3.396776 1.04357,0 1.63066,1.199086 0.98746,2.016787 -0.43522,0.553289 -1.52194,0.612706 -2.54949,0.139396 z m 9.45344,-0.139396 c -0.64321,-0.817701 -0.0561,-2.016787 0.98746,-2.016787 1.0957,0 1.2244,-0.332354 1.31538,-3.396776 0.0719,-2.422235 0.12745,-2.859626 0.44334,-3.491751 l 0.36113,-0.722658 -0.35618,-0.674942 c -0.31125,-0.589824 -0.36717,-1.024182 -0.44334,-3.44405 -0.0936,-2.973672 -0.23888,-3.396775 -1.16639,-3.396775 -0.99858,0 -1.72456,-1.009696 -1.28712,-1.790117 0.72338,-1.290574 3.22377,-0.754512 4.32996,0.928293 0.58325,0.887303 0.74082,1.805628 0.74536,4.344073 0.004,2.446297 0.11153,2.765837 0.92757,2.765837 0.57126,0 1.21395,0.69243 1.21395,1.307914 0,0.628552 -0.4676,1.107877 -1.21814,1.248677 -0.85481,0.160364 -0.88115,0.24905 -0.95,3.198232 -0.0691,2.959864 -0.24985,3.615958 -1.25758,4.564697 -1.14364,1.076693 -3.01857,1.373016 -3.6454,0.576133 z"
           id="path293" />
        <path
           style="fill:#434a53;stroke-width:0.16442345"
           d="m 116.18451,61.184633 c -0.9622,-0.439254 -2.12924,-1.659768 -2.65062,-2.772077 l -0.43904,-0.936638 -0.0429,-21.240689 -0.0429,-21.240692 0.35741,-0.955265 c 0.4876,-1.303239 1.84715,-2.664098 3.14762,-3.150666 0.94541,-0.353725 1.01943,-0.355574 14.13919,-0.353156 14.47963,0.0027 14.25962,-0.01087 16.26309,1.000484 2.76062,1.393554 4.75269,3.859359 5.36656,6.642775 0.75974,3.444796 0.40001,3.787882 -3.83697,3.659481 -3.29112,-0.09974 -4.13342,-0.367539 -5.52134,-1.755457 -1.34186,-1.341863 -1.63108,-2.219938 -1.63108,-4.952025 V 12.999371 H 129.6141 c -13.51379,0 -12.93083,-0.0708 -13.82378,1.67879 -0.48726,0.954698 -0.48634,41.727955 0.001,42.683144 0.3842,0.753096 1.10326,1.490531 1.5632,1.603155 0.18931,0.04636 7.04034,0.06336 15.22452,0.03778 l 14.88032,-0.04648 0.79186,-0.389875 c 0.49741,-0.244898 0.95597,-0.637818 1.23318,-1.056646 l 0.44131,-0.666764 0.0822,-15.585428 c 0.092,-17.435883 -0.007,-16.156079 1.252,-16.156079 1.31531,0 1.22646,-1.239351 1.17645,16.410553 l -0.0443,15.642713 -0.54256,1.101992 c -0.61877,1.256769 -1.43356,2.012295 -2.92181,2.709255 l -0.97506,0.45663 -15.53801,0.03928 c -15.02191,0.03797 -15.56101,0.02877 -16.2301,-0.276698 z m 33.58181,-42.543604 c -0.43596,-2.323903 -3.07616,-4.964098 -5.40006,-5.400065 l -0.60644,-0.113767 v 1.915718 c 0,3.405825 0.77548,4.186506 4.16999,4.197964 l 1.95028,0.0066 z"
           id="path273" />
      </g>
    </g>
  </g>
</svg>
